<mxfile host="drawio-plugin" modified="2024-07-22T15:46:31.350Z" agent="5.0 (X11; Linux x86_64) AppleWebKit/537.36 (KHTML, like Gecko) Chrome/122.0.0.0 Safari/537.36" etag="celUh_C1hCGHY7Di6YWW" version="15.5.4" type="embed"><diagram name="Страница — 1" id="tbOIxJSjf98ErPQlKuzX"><mxGraphModel dx="899" dy="549" grid="1" gridSize="10" guides="1" tooltips="1" connect="1" arrows="1" fold="1" page="1" pageScale="1" pageWidth="850" pageHeight="1100" math="0" shadow="0"><root><mxCell id="0"/><mxCell id="1" parent="0"/><mxCell id="9" value="&lt;table border=&quot;1&quot; width=&quot;100%&quot; height=&quot;100%&quot; cellpadding=&quot;4&quot; style=&quot;width:100%;height:100%;border-collapse:collapse;&quot;&gt;&lt;tbody&gt;&lt;tr&gt;&lt;th align=&quot;center&quot;&gt;&lt;b&gt;Position&lt;/b&gt;&lt;/th&gt;&lt;/tr&gt;&lt;tr align=&quot;left&quot;&gt;&lt;td&gt;- Атрибуты&lt;br&gt;&lt;span style=&quot;white-space: pre;&quot;&gt;&#9;&lt;/span&gt;+guid :Guid person&lt;br&gt;&lt;span style=&quot;white-space: pre;&quot;&gt;&#9;&lt;/span&gt;+guid :Guid organization&lt;br&gt;&lt;div class=&quot;Box-sc-g0xbh4-0 code-navigation-cursor&quot; data-testid=&quot;navigation-cursor&quot; style=&quot;top: 180px; left: 553px;&quot; aria-hidden=&quot;true&quot;&gt; &lt;/div&gt;&lt;span style=&quot;white-space: pre;&quot;&gt;&#9;&lt;/span&gt;+title :String&lt;span style=&quot;white-space: pre;&quot;&gt;&#9;&lt;/span&gt;&lt;/td&gt;&lt;/tr&gt;&lt;tr&gt;&lt;td&gt;- Операции&lt;br&gt;&lt;div align=&quot;left&quot;&gt;&lt;span style=&quot;white-space: pre;&quot;&gt;&#9;&lt;/span&gt;+Position()&lt;br&gt;&lt;span style=&quot;white-space: pre;&quot;&gt;&#9;&lt;/span&gt;+toString(): String&lt;br&gt;&lt;/div&gt;&lt;/td&gt;&lt;/tr&gt;&lt;/tbody&gt;&lt;/table&gt;" style="text;html=1;whiteSpace=wrap;strokeColor=none;fillColor=none;overflow=fill;strokeWidth=1;" parent="1" vertex="1"><mxGeometry x="20" y="30" width="198.59" height="155.07" as="geometry"/></mxCell></root></mxGraphModel></diagram></mxfile>